<svg width="2048" height="959" viewBox="0 0 2048 959" fill="none" xmlns="http://www.w3.org/2000/svg">
  <defs>
    <linearGradient id="page" x1="1024" y1="0" x2="1024" y2="959" gradientUnits="userSpaceOnUse">
      <stop stop-color="#BFEAFB"/>
      <stop offset="1" stop-color="#9BD0E8"/>
    </linearGradient>
    <radialGradient id="sunGlow" cx="0" cy="0" r="1" gradientUnits="userSpaceOnUse" gradientTransform="translate(1080 114) rotate(90) scale(200 900)">
      <stop stop-color="#FFF6C8"/>
      <stop offset="1" stop-color="#FFF6C8" stop-opacity="0"/>
    </radialGradient>
  </defs>

  <rect width="2048" height="959" fill="url(#page)"/>
  <rect x="132" y="81" width="1598" height="405" fill="#7BC9F1" stroke="#35597A" stroke-width="6"/>
  <rect x="132" y="81" width="1598" height="405" fill="url(#sunGlow)"/>

  <g opacity="0.9" fill="#FFFDF6">
    <rect x="312" y="132" width="34" height="6"/>
    <rect x="322" y="126" width="12" height="6"/>
    <rect x="830" y="118" width="34" height="6"/>
    <rect x="842" y="112" width="10" height="6"/>
    <rect x="1344" y="136" width="34" height="6"/>
    <rect x="1356" y="130" width="10" height="6"/>
  </g>

  <g fill="#FFFDF6">
    <rect x="384" y="162" width="68" height="18"/>
    <rect x="396" y="144" width="24" height="16"/>
    <rect x="420" y="138" width="28" height="22"/>
    <rect x="442" y="148" width="24" height="12"/>

    <rect x="1276" y="144" width="82" height="18"/>
    <rect x="1288" y="126" width="24" height="16"/>
    <rect x="1312" y="120" width="34" height="22"/>
    <rect x="1336" y="130" width="28" height="12"/>

    <rect x="1498" y="186" width="58" height="14"/>
    <rect x="1510" y="174" width="18" height="12"/>
    <rect x="1528" y="170" width="18" height="16"/>
  </g>

  <g>
    <path d="M134 383L201 280L236 244L348 383H134Z" fill="#B86424"/>
    <path d="M134 383L236 244L255 308L198 383H134Z" fill="#DD9A5A"/>
    <path d="M182 320L198 286L205 336L196 383H185L192 344L182 320Z" fill="#6F3A11"/>

    <path d="M208 381L270 274L306 238L424 381H208Z" fill="#A5561A"/>
    <path d="M208 381L306 238L329 316L286 381H208Z" fill="#D48954"/>
    <path d="M278 326L296 282L303 342L295 381H284L290 340L278 326Z" fill="#68320D"/>

    <path d="M320 381L420 286L508 202L664 381H320Z" fill="#C27838"/>
    <path d="M320 381L508 202L470 306L396 381H320Z" fill="#E3A86B"/>
    <path d="M470 262L488 220L494 324L484 381H472L480 324L470 262Z" fill="#814310"/>

    <path d="M556 381L660 310L720 246L872 381H556Z" fill="#D4A04E"/>
    <path d="M556 381L720 246L700 318L634 381H556Z" fill="#F0C174"/>
    <path d="M758 381L902 278L964 226L1104 381H758Z" fill="#A75B20"/>
    <path d="M758 381L964 226L930 320L850 381H758Z" fill="#D99159"/>
    <path d="M904 280L922 246L928 330L918 381H906L914 330L904 280Z" fill="#6C360F"/>

    <path d="M1218 381L1318 256L1390 206L1538 381H1218Z" fill="#A7591E"/>
    <path d="M1218 381L1390 206L1364 318L1298 381H1218Z" fill="#D58E58"/>
    <path d="M1330 286L1346 250L1352 330L1342 381H1330L1338 330L1330 286Z" fill="#6D3610"/>
  </g>

  <g opacity="0.35" fill="#F5E4B2">
    <rect x="132" y="389" width="900" height="10"/>
    <rect x="132" y="414" width="806" height="10"/>
  </g>

  <circle cx="1490" cy="164" r="38" fill="#FFD24D"/>
  <circle cx="1490" cy="164" r="54" fill="#C7D089" opacity="0.55"/>

  <g transform="translate(342 318)">
    <rect x="18" y="18" width="16" height="16" fill="#6F7486"/>
    <rect x="30" y="18" width="13" height="15" fill="#6F7486"/>
    <rect x="40" y="20" width="9" height="10" fill="#6F7486"/>
    <rect x="45" y="24" width="6" height="5" fill="#6F7486"/>
    <rect x="22" y="12" width="4" height="7" fill="#6F7486"/>
    <rect x="31" y="13" width="4" height="6" fill="#6F7486"/>
    <rect x="20" y="22" width="9" height="6" fill="#A1A9BA"/>
    <rect x="30" y="23" width="6" height="4" fill="#858C9B"/>
    <rect x="38" y="21" width="3" height="3" fill="#A1A9BA"/>
    <rect x="43" y="21" width="7" height="5" fill="#EFE6D0"/>
    <rect x="48" y="19" width="4" height="5" fill="#EFE6D0"/>
    <rect x="51" y="17" width="2" height="3" fill="#EFE6D0"/>
    <rect x="22" y="14" width="2" height="5" fill="#D8BFD7"/>
    <rect x="31" y="15" width="2" height="4" fill="#D8BFD7"/>
    <rect x="35" y="22" width="4" height="4" fill="#FFFFFF"/>
    <rect x="36" y="23" width="2" height="2" fill="#1D2430"/>

    <rect x="8" y="38" width="28" height="18" fill="#F2C63D"/>
    <rect x="12" y="34" width="10" height="7" fill="#F2C63D"/>
    <rect x="24" y="33" width="12" height="8" fill="#F2C63D"/>
    <rect x="18" y="43" width="14" height="13" fill="#F2C63D"/>
    <rect x="6" y="42" width="8" height="11" fill="#F2C63D"/>
    <rect x="32" y="41" width="9" height="14" fill="#F2C63D"/>
    <rect x="9" y="44" width="10" height="10" fill="#FFE07A"/>
    <rect x="22" y="44" width="6" height="8" fill="#FFE07A"/>
    <rect x="29" y="46" width="2" height="10" fill="#BB9620"/>

    <rect x="12" y="56" width="8" height="16" fill="#D94A3A"/>
    <rect x="23" y="56" width="8" height="16" fill="#D94A3A"/>
    <rect x="14" y="51" width="14" height="9" fill="#D94A3A"/>
    <rect x="13" y="58" width="2" height="8" fill="#FF7667"/>
    <rect x="25" y="58" width="2" height="8" fill="#FF7667"/>
    <rect x="12" y="71" width="9" height="4" fill="#8F97A6"/>
    <rect x="23" y="71" width="9" height="4" fill="#8F97A6"/>
  </g>

  <g transform="translate(474 334)">
    <path d="M8 44C8 26 12 12 22 2C38 6 44 22 44 44H8Z" fill="#3C9A16"/>
    <path d="M22 4C30 4 34 18 34 44H22V4Z" fill="#79C92D"/>
    <path d="M32 6C38 10 40 24 38 44H32V6Z" fill="#2C6D0D"/>
    <path d="M6 34C-4 28 -6 18 0 12C8 8 14 16 12 28L6 34Z" fill="#3C9A16"/>
    <path d="M46 30C58 24 60 14 54 8C46 4 40 12 42 24L46 30Z" fill="#3C9A16"/>
  </g>

  <g transform="translate(836 204)">
    <path d="M14 40C2 40 -6 34 -10 26H2L10 24L16 20L26 20L32 22L40 24H58C56 34 44 40 28 40H14Z" fill="#F01722"/>
    <path d="M16 18C16 8 22 0 30 0C38 0 44 8 44 18H16Z" fill="#F01722"/>
    <path d="M0 24C0 14 6 6 16 6C22 6 26 10 28 16L20 24H0Z" fill="#F01722"/>
    <path d="M30 16C32 10 36 6 42 6C52 6 58 14 58 24H38L30 16Z" fill="#F01722"/>
  </g>
  <g transform="translate(884 214)">
    <path d="M14 40C2 40 -6 34 -10 26H2L10 24L16 20L26 20L32 22L40 24H58C56 34 44 40 28 40H14Z" fill="#F01722"/>
    <path d="M16 18C16 8 22 0 30 0C38 0 44 8 44 18H16Z" fill="#F01722"/>
    <path d="M0 24C0 14 6 6 16 6C22 6 26 10 28 16L20 24H0Z" fill="#F01722"/>
    <path d="M30 16C32 10 36 6 42 6C52 6 58 14 58 24H38L30 16Z" fill="#F01722"/>
  </g>

  <g transform="translate(1612 330)">
    <path d="M8 44C8 26 12 12 22 2C38 6 44 22 44 44H8Z" fill="#3C9A16"/>
    <path d="M22 4C30 4 34 18 34 44H22V4Z" fill="#79C92D"/>
    <path d="M32 6C38 10 40 24 38 44H32V6Z" fill="#2C6D0D"/>
    <path d="M6 34C-4 28 -6 18 0 12C8 8 14 16 12 28L6 34Z" fill="#3C9A16"/>
    <path d="M46 30C58 24 60 14 54 8C46 4 40 12 42 24L46 30Z" fill="#3C9A16"/>
    <path d="M20 44L26 38L32 40L30 46L22 48L20 44Z" fill="#C89B58"/>
  </g>

  <g transform="translate(144 96)">
    <path d="M14 40C2 40 -6 34 -10 26H2L10 24L16 20L26 20L32 22L40 24H58C56 34 44 40 28 40H14Z" fill="#F01722"/>
    <path d="M16 18C16 8 22 0 30 0C38 0 44 8 44 18H16Z" fill="#F01722"/>
    <path d="M0 24C0 14 6 6 16 6C22 6 26 10 28 16L20 24H0Z" fill="#F01722"/>
    <path d="M30 16C32 10 36 6 42 6C52 6 58 14 58 24H38L30 16Z" fill="#F01722"/>
    <text x="78" y="32" font-family="Trebuchet MS, Verdana, sans-serif" font-size="32" font-weight="700" fill="#F01722">0</text>
  </g>

  <text x="1374" y="142" font-family="Trebuchet MS, Verdana, sans-serif" font-size="42" font-weight="700" fill="#FF2F3A">HI 04729   00117</text>
  <text x="394" y="558" font-family="Trebuchet MS, Verdana, sans-serif" font-size="32" font-weight="600" fill="#3E5C7B">Тап по экрану или Space - прыжок и старт. После проигрыша тапни или нажми Space, чтобы начать заново.</text>
</svg>
