<svg width="1200" height="630" viewBox="0 0 1200 630" fill="none" xmlns="http://www.w3.org/2000/svg">
  <defs>
    <linearGradient id="sky" x1="600" y1="0" x2="600" y2="630" gradientUnits="userSpaceOnUse">
      <stop stop-color="#79D4FF"/>
      <stop offset="0.58" stop-color="#D8F4FF"/>
      <stop offset="1" stop-color="#FFF0BE"/>
    </linearGradient>
    <filter id="shadow" x="-20%" y="-20%" width="140%" height="140%">
      <feDropShadow dx="0" dy="10" stdDeviation="12" flood-color="#274B6D" flood-opacity="0.18"/>
    </filter>
  </defs>

  <rect width="1200" height="630" fill="#A7D8F0"/>
  <rect x="60" y="40" width="1080" height="460" rx="8" fill="url(#sky)" stroke="#32557A" stroke-width="6"/>

  <circle cx="980" cy="140" r="48" fill="#FFD24D" opacity="0.95"/>
  <circle cx="980" cy="140" r="72" fill="#FFD24D" opacity="0.2"/>

  <path d="M70 390L180 290L320 390H70Z" fill="#D6E2A0"/>
  <path d="M190 390L330 235L470 390H190Z" fill="#AFC65E"/>
  <path d="M420 390L520 270L650 390H420Z" fill="#D1DCA0"/>
  <path d="M560 390L700 195L860 390H560Z" fill="#AFC65E"/>
  <path d="M790 390L930 250L1090 390H790Z" fill="#CAD79A"/>

  <rect x="66" y="392" width="1068" height="28" fill="#E1E8D9"/>
  <rect x="66" y="420" width="1068" height="74" fill="#EDC365"/>
  <rect x="66" y="418" width="1068" height="6" fill="#7B5E33"/>

  <g fill="#A47A3B">
    <rect x="86" y="440" width="22" height="6"/>
    <rect x="128" y="452" width="16" height="5"/>
    <rect x="176" y="438" width="20" height="6"/>
    <rect x="234" y="455" width="24" height="6"/>
    <rect x="312" y="442" width="18" height="6"/>
    <rect x="368" y="458" width="14" height="5"/>
    <rect x="822" y="440" width="20" height="6"/>
    <rect x="904" y="454" width="18" height="6"/>
    <rect x="1012" y="442" width="26" height="6"/>
  </g>

  <g fill="#FFFFFF">
    <rect x="290" y="118" width="68" height="20"/>
    <rect x="304" y="102" width="32" height="18"/>
    <rect x="338" y="108" width="24" height="16"/>
    <rect x="862" y="146" width="78" height="22"/>
    <rect x="878" y="126" width="36" height="20"/>
    <rect x="914" y="132" width="26" height="16"/>
  </g>
  <g fill="#D0D7DB">
    <rect x="290" y="134" width="68" height="4"/>
    <rect x="862" y="164" width="78" height="4"/>
  </g>

  <g filter="url(#shadow)">
    <ellipse cx="260" cy="420" rx="44" ry="10" fill="#50647A" opacity="0.25"/>

    <g transform="translate(220 250)">
      <rect x="46" y="10" width="18" height="30" fill="#707688"/>
      <rect x="62" y="14" width="18" height="24" fill="#707688"/>
      <rect x="76" y="18" width="18" height="20" fill="#707688"/>
      <rect x="90" y="24" width="16" height="14" fill="#707688"/>
      <rect x="50" y="0" width="8" height="20" fill="#707688"/>
      <rect x="64" y="4" width="8" height="16" fill="#707688"/>
      <rect x="52" y="18" width="12" height="12" fill="#A6ADBE"/>
      <rect x="82" y="20" width="10" height="8" fill="#A6ADBE"/>
      <rect x="94" y="14" width="16" height="8" fill="#EFE6D0"/>
      <rect x="108" y="10" width="8" height="6" fill="#EFE6D0"/>

      <rect x="38" y="42" width="40" height="30" fill="#F2C63D"/>
      <rect x="34" y="48" width="12" height="18" fill="#F2C63D"/>
      <rect x="48" y="34" width="18" height="12" fill="#F2C63D"/>
      <rect x="70" y="34" width="18" height="12" fill="#F2C63D"/>
      <rect x="80" y="44" width="12" height="24" fill="#F2C63D"/>
      <rect x="44" y="46" width="14" height="10" fill="#FFE07A"/>
      <rect x="66" y="48" width="8" height="8" fill="#FFE07A"/>

      <rect x="42" y="72" width="14" height="46" fill="#D94A3A"/>
      <rect x="66" y="72" width="14" height="46" fill="#D94A3A"/>
      <rect x="50" y="64" width="20" height="16" fill="#D94A3A"/>
      <rect x="46" y="76" width="4" height="20" fill="#FF7667"/>
      <rect x="70" y="76" width="4" height="20" fill="#FF7667"/>
      <rect x="44" y="114" width="14" height="6" fill="#4E5365"/>
      <rect x="66" y="114" width="14" height="6" fill="#4E5365"/>

      <rect x="56" y="4" width="4" height="10" fill="#D8BFD7"/>
      <rect x="72" y="8" width="4" height="8" fill="#D8BFD7"/>
      <rect x="86" y="16" width="3" height="3" fill="#FFFFFF"/>
      <rect x="87" y="17" width="1" height="1" fill="#1D2430"/>
      <rect x="82" y="28" width="10" height="3" fill="#1D2430"/>
    </g>
  </g>

  <g transform="translate(690 288)">
    <path d="M18 8H34V22H18V8Z" fill="#FF4D67"/>
    <path d="M34 8H50V22H34V8Z" fill="#FF4D67"/>
    <path d="M10 18H58V34H10V18Z" fill="#FF4D67"/>
    <path d="M14 34H54V46H14V34Z" fill="#FF4D67"/>
    <path d="M22 46H46V58H22V46Z" fill="#FF4D67"/>
    <path d="M22 12H30V20H22V12Z" fill="#FF9BAA"/>
    <path d="M38 12H46V20H38V12Z" fill="#FF9BAA"/>
  </g>

  <g transform="translate(834 302)">
    <rect x="18" y="10" width="28" height="12" fill="#7B4D90"/>
    <rect x="12" y="14" width="8" height="8" fill="#7B4D90"/>
    <rect x="46" y="12" width="10" height="7" fill="#7B4D90"/>
    <rect x="0" y="4" width="20" height="6" fill="#9F6FC2"/>
    <rect x="34" y="0" width="24" height="6" fill="#9F6FC2"/>
    <rect x="48" y="14" width="3" height="3" fill="#FFF5F5"/>
  </g>

  <g transform="translate(80 68)">
    <path d="M8 4H16V12H8V4Z" fill="#FF4D67"/>
    <path d="M16 4H24V12H16V4Z" fill="#FF4D67"/>
    <path d="M4 10H28V18H4V10Z" fill="#FF4D67"/>
    <path d="M6 18H26V24H6V18Z" fill="#FF4D67"/>
    <path d="M10 24H22V30H10V24Z" fill="#FF4D67"/>
    <text x="38" y="26" font-family="Verdana, sans-serif" font-size="24" font-weight="700" fill="#36506D">12</text>
  </g>

  <text x="786" y="94" font-family="Verdana, sans-serif" font-size="28" font-weight="700" fill="#FF8A9B">HI 01748   02460</text>
  <text x="84" y="568" font-family="Verdana, sans-serif" font-size="48" font-weight="800" fill="#28455D">Rhino Runner</text>
  <text x="86" y="606" font-family="Verdana, sans-serif" font-size="22" font-weight="600" fill="#4B6886">Colorful browser runner with hearts, jumps and a stylish rhino.</text>
</svg>
